# xmcd CD database file generated by Grip 3.0.7
# 
# Track frame offsets:
#       150
#       11950
#       28920
#       43290
#       56715
#       69850
#       83880
#       100110
#       112187
#       128725
#       142352
#       155842
#       173332
#       188012
#       202050
#       213812
#       226457
#       244920
#       255160
#       268105
#       283165
#       299992
#       317805
# 
# Disc length: 4541 seconds
# 
# Revision: 1
# Processed by: cddbd v1.5.1PL0 Copyright (c) Steve Scherf et al.
# Submitted via: Grip 3.0.7
# 
DISCID=6b11bb17
DTITLE=Johnny Paycheck - The Soul and the Edge: The Best of Johnny Paycheck
DYEAR=2002
DGENRE=Country
TTITLE0=Take This Job And Shove It
TTITLE1=11 Months and 29 Days
TTITLE2=I'm the Only Hell (Mama Ever Raised)
TTITLE3=Slide off of Your Satin Sheets
TTITLE4=She's All I Got
TTITLE5=Ragged Old Truck
TTITLE6=Colorado Cool-Aid
TTITLE7=Fifteen Beers
TTITLE8=I've Seen Better Days
TTITLE9=Someone to Give My Love to
TTITLE10=My Part of Forever
TTITLE11=Yesterday's News Just Hit Home Today
TTITLE12=(Stay Away From) The Cocaine Train [Live]
TTITLE13=Me and the I.R.S. [Live]
TTITLE14=The Feminine Touch
TTITLE15=You Better Move On [Duet with George Jones]
TTITLE16=I Did the Right Thing
TTITLE17=When I Had a Home to Go Home to
TTITLE18=Barstool Mountain
TTITLE19=I Can See Me Lovin' You Again
TTITLE20=Old Violin
TTITLE21=All Night Lady
TTITLE22=The Outlaw's Prayer
EXTD=
EXTT0=
EXTT1=
EXTT2=
EXTT3=
EXTT4=
EXTT5=
EXTT6=
EXTT7=
EXTT8=
EXTT9=
EXTT10=
EXTT11=
EXTT12=
EXTT13=
EXTT14=
EXTT15=
EXTT16=
EXTT17=
EXTT18=
EXTT19=
EXTT20=
EXTT21=
EXTT22=
PLAYORDER=
